<?xml version="1.0" encoding="UTF-8" standalone="no"?>
<!-- Created with Inkscape (http://www.inkscape.org/) -->

<svg
   width="1351.3369"
   height="466"
   viewBox="0 0 357.54122 123.29583"
   version="1.1"
   id="svg1"
   inkscape:version="1.4.2 (ebf0e940d0, 2025-05-08)"
   sodipodi:docname="bitmap.svg"
   xml:space="preserve"
   xmlns:inkscape="http://www.inkscape.org/namespaces/inkscape"
   xmlns:sodipodi="http://sodipodi.sourceforge.net/DTD/sodipodi-0.dtd"
   xmlns:xlink="http://www.w3.org/1999/xlink"
   xmlns="http://www.w3.org/2000/svg"
   xmlns:svg="http://www.w3.org/2000/svg"
   xmlns:rdf="http://www.w3.org/1999/02/22-rdf-syntax-ns#"
   xmlns:cc="http://creativecommons.org/ns#"><sodipodi:namedview
     id="namedview1"
     pagecolor="#ffffff"
     bordercolor="#89dceb"
     borderopacity="1"
     inkscape:showpageshadow="0"
     inkscape:pageopacity="0"
     inkscape:pagecheckerboard="false"
     inkscape:deskcolor="#dfe0e6"
     inkscape:document-units="px"
     showguides="true"
     inkscape:lockguides="false"
     showborder="false"
     borderlayer="true"
     showgrid="false"><sodipodi:guide
       position="295.89331,61.647915"
       orientation="0,-1"
       id="guide83"
       inkscape:locked="false" /><sodipodi:guide
       position="295.89331,61.647914"
       orientation="1,0"
       id="guide84"
       inkscape:locked="false" /><sodipodi:guide
       position="295.89331,89.429165"
       orientation="0,-1"
       id="guide97"
       inkscape:locked="false" /><sodipodi:guide
       position="295.89331,54.870493"
       orientation="0,-1"
       id="guide99"
       inkscape:locked="false" /><inkscape:page
       x="0"
       y="0"
       width="357.54123"
       height="123.29583"
       id="page1"
       margin="0"
       bleed="0" /></sodipodi:namedview><defs
     id="defs1"><linearGradient
       id="linearGradient84"
       inkscape:collect="always"><stop
         style="stop-color:#092c4f;stop-opacity:1;"
         offset="0"
         id="stop84" /><stop
         style="stop-color:#145fad;stop-opacity:1;"
         offset="1"
         id="stop85" /></linearGradient><linearGradient
       inkscape:collect="always"
       xlink:href="#linearGradient84"
       id="linearGradient85"
       x1="61.647915"
       y1="15.345848"
       x2="61.647915"
       y2="52.387512"
       gradientUnits="userSpaceOnUse" /></defs><g
     inkscape:label="Warstwa 1"
     inkscape:groupmode="layer"
     id="layer1"
     transform="translate(234.24539)"><rect
       style="opacity:1;fill:#00ff00;fill-opacity:1;stroke-width:0.206765;stroke-miterlimit:4.5"
       id="rect100"
       width="9.5249996"
       height="123.29583"
       x="-234.24539"
       y="0"
       inkscape:export-filename="g.png"
       inkscape:export-xdpi="96"
       inkscape:export-ydpi="96" /><rect
       style="opacity:1;fill:#00ff00;fill-opacity:1;stroke-width:0.206765;stroke-miterlimit:4.5"
       id="rect101"
       width="9.5249996"
       height="123.29583"
       x="-216.5602"
       y="0"
       inkscape:export-filename="m.png"
       inkscape:export-xdpi="96"
       inkscape:export-ydpi="96" /><rect
       style="opacity:1;fill:#00ff00;fill-opacity:1;stroke-width:0.206765;stroke-miterlimit:4.5"
       id="rect102"
       width="9.5249996"
       height="123.29583"
       x="-195.20448"
       y="0"
       inkscape:export-filename="s.png"
       inkscape:export-xdpi="96"
       inkscape:export-ydpi="96" /><rect
       style="opacity:1;fill:#00ff00;fill-opacity:1;stroke-width:0.206765;stroke-miterlimit:4.5"
       id="rect103"
       width="9.5249996"
       height="123.29583"
       x="-170.51195"
       y="0"
       inkscape:export-filename="b.png"
       inkscape:export-xdpi="96"
       inkscape:export-ydpi="96" /><g
       id="g103"
       inkscape:export-filename="t.png"
       inkscape:export-xdpi="96"
       inkscape:export-ydpi="96"><circle
         style="fill:#0e447b;fill-opacity:1;stroke-width:0.445993;stroke-miterlimit:4.5"
         id="path1"
         cx="61.647915"
         cy="61.647915"
         r="61.647915" /><path
         id="rect1"
         style="fill:#ffffff;stroke-width:0.0702244;stroke-miterlimit:4.5"
         d="M 0.92604164,-61.383332 H 3.5718749 v -0.529166 H 0.92604164 Z m 0.30489096,5.819283 0.055294,0.526583 2.6313638,-0.276469 -0.055294,-0.526583 z m 0,-12.167732 2.6313638,0.276469 0.055294,-0.526583 -2.6313638,-0.276469 z m 0.966866,18.450036 0.1100708,0.517281 2.5879557,-0.549837 -0.1100708,-0.517798 z m 0,-24.73234 2.5879557,0.550354 0.1100708,-0.517798 -2.5879557,-0.549837 z m 1.6185058,30.878735 0.1632975,0.503328 2.5166422,-0.817521 -0.1638143,-0.503329 z m 0,-37.02513 2.5161254,0.817522 0.1638143,-0.503329 -2.5166422,-0.817521 z m 2.2520589,42.968436 0.2149739,0.483691 2.4169067,-1.07642 -0.2149739,-0.483174 z m 0,-48.911742 2.4169067,1.075903 0.2149739,-0.483174 -2.4169067,-1.07642 z m 2.8608072,54.587881 0.2645833,0.457853 2.2913332,-1.322916 -0.264584,-0.457854 z m 0,-60.26402 2.2913325,1.322917 0.264584,-0.457854 -2.2913332,-1.322916 z m 3.4380325,65.60943 0.311093,0.427881 2.140437,-1.554944 -0.310575,-0.428397 z m 0,-70.95484 2.140955,1.55546 0.310575,-0.428397 -2.140437,-1.554944 z m 3.978569,75.911643 0.353983,0.393258 1.966289,-1.770435 -0.353984,-0.393257 z m 0,-80.868448 1.966288,1.77044 0.353984,-0.39326 -1.966289,-1.77044 z m 4.474662,85.382385 0.393258,0.353983 1.770434,-1.966288 -0.393257,-0.353984 z m 0,-89.896315 1.770435,1.96628 0.393257,-0.35398 -1.770434,-1.96629 z m 4.92218,93.917774 0.427881,0.311093 1.55546,-2.140955 -0.428397,-0.310575 z m 0,-97.939234 1.554944,2.14043 0.428397,-0.31109 -1.55546,-2.14044 z m 5.315438,101.4237762 0.457853,0.2645833 1.322917,-2.2913325 -0.457854,-0.264584 z m 0,-104.9083262 1.322916,2.29134 0.457854,-0.26459 -1.322917,-2.29133 z m 5.650301,107.8187428 0.483691,0.2149739 1.075903,-2.4169067 -0.483174,-0.2149739 z m 0,-110.7291528 1.07642,2.4169 0.483174,-0.21497 -1.075903,-2.41742 z m 5.923669,113.0328881 0.503328,0.1632975 0.817522,-2.5161254 -0.503329,-0.1638143 z m 0,-115.3366281 0.818038,2.51664 0.502812,-0.16381 -0.817522,-2.51613 z m 6.132442,117.0083606 0.517281,0.1100708 0.550354,-2.5879557 -0.517798,-0.1100708 z m 0,-118.6800906 0.549837,2.58796 0.517798,-0.11008 -0.550354,-2.58795 z m 6.273002,119.7017336 0.526583,0.055294 0.276469,-2.6313638 -0.526583,-0.055294 z m 0,-120.7233736 0.276986,2.63136 0.526066,-0.0553 -0.276469,-2.63137 z m 6.345866,121.08355836 h 0.529166 V -3.5718749 h -0.529166 z m 0,-118.79791836 h 0.529166 v -2.64583 h -0.529166 z m 6.07198,115.8616636 0.276469,2.6313638 0.526583,-0.055294 -0.276469,-2.6313638 z m 0,-115.5712336 0.526583,0.0553 0.276469,-2.63136 -0.526583,-0.0553 z m 6.008419,114.6477757 0.550354,2.5879557 0.517281,-0.1100708 -0.549837,-2.5879557 z m 0,-113.7243257 0.517798,0.11008 0.549837,-2.58796 -0.517281,-0.11007 z m 5.879227,112.1776502 0.817522,2.5161254 0.503328,-0.1632975 -0.817521,-2.5166422 z m 0,-110.6309702 0.503329,0.16381 0.817521,-2.51664 -0.503328,-0.1633 z m 5.684925,108.47813 1.075903,2.4174235 0.483691,-0.2154907 -1.07642,-2.4169067 z m 0,-106.32529 0.483174,0.21497 1.07642,-2.4169 -0.483691,-0.21549 z m 5.429125,103.590057 1.322917,2.2913325 0.457853,-0.2645833 -1.322916,-2.2913332 z m 0,-100.854827 0.457854,0.26459 1.322916,-2.29134 -0.457853,-0.26458 z m 5.112867,97.567172 1.55546,2.140955 0.427881,-0.311093 -1.554944,-2.140437 z m 0,-94.279512 0.428397,0.31057 1.554944,-2.14043 -0.427881,-0.3111 z m 4.741825,90.47561 1.77044,1.966288 0.39326,-0.353983 -1.77044,-1.966289 z m 0,-86.67171 0.39326,0.35398 1.77044,-1.96628 -0.39326,-0.35399 z m 4.31809,82.392901 1.96628,1.770435 0.35399,-0.393258 -1.96629,-1.770434 z m 0,-78.114091 0.35398,0.39326 1.96629,-1.77044 -0.35399,-0.39326 z m 3.84731,73.407402 2.14043,1.554944 0.3111,-0.427881 -2.14044,-1.55546 z m 0,-68.700714 0.31109,0.428397 2.14044,-1.55546 -0.3111,-0.427881 z m 3.33364,63.617304 2.29134,1.322916 0.26458,-0.457853 -2.29133,-1.322917 z m 0,-58.533894 0.26459,0.457854 2.29133,-1.322917 -0.26458,-0.457853 z m 2.78485,53.130089 2.4169,1.07642 0.21498,-0.483691 -2.41691,-1.075903 z m 0,-47.726284 0.21497,0.483174 2.41691,-1.075903 -0.21498,-0.483691 z m 2.204,42.061514 2.51664,0.817521 0.1633,-0.503328 -2.51613,-0.817522 z m 0,-36.396227 0.16381,0.502812 2.51613,-0.817522 -0.1633,-0.503328 z m 1.60041,30.531469 2.58796,0.549837 0.11007,-0.517281 -2.58795,-0.550354 z m 0,-24.667228 0.11008,0.517798 2.58795,-0.550354 -0.11007,-0.517281 z m 0.97824,18.667594 2.63136,0.276469 0.0553,-0.526583 -2.63137,-0.276469 z m 0,-12.66796 0.0553,0.526583 2.63137,-0.276469 -0.0553,-0.526583 z m 0.34572,6.598563 h 2.64583 v -0.529166 h -2.64583 z"
         transform="rotate(90)" /><path
         id="rect61"
         style="fill:#ffffff;stroke-width:0.12669;stroke-miterlimit:4.5"
         d="M 0.92604164,-61.118748 H 6.2177082 v -1.058334 H 0.92604164 Z m 7.87083716,29.3734 0.5291667,0.91674 4.5826655,-2.645834 -0.529166,-0.91674 z m 0,-59.805134 4.5826662,2.645834 0.529166,-0.91674 -4.5826655,-2.645834 z m 22.0317292,82.2244365 0.91674,0.5291667 2.645834,-4.5826662 -0.91674,-0.529166 z m 0,-104.6437345 2.645834,4.58266 0.91674,-0.52917 -2.645834,-4.58266 z m 30.29014,113.04373836 h 1.058334 V -6.2177082 h -1.058334 z m 0,-116.15207836 h 1.058334 v -5.29167 h -1.058334 z m 27.7859,103.698575 2.645834,4.5826662 0.91674,-0.5291667 -2.645834,-4.5826655 z m 0,-96.536745 0.91674,0.52917 2.645834,-4.58266 -0.91674,-0.52917 z m 20.482472,76.441848 4.58266,2.645834 0.52917,-0.91674 -4.58266,-2.645834 z m 0,-56.346946 0.52917,0.91674 4.58266,-2.645834 -0.52917,-0.91674 z m 7.691,28.70264 h 5.29167 v -1.058334 h -5.29167 z"
         transform="rotate(90)" /><text
         xml:space="preserve"
         style="font-style:normal;font-variant:normal;font-weight:bold;font-stretch:normal;font-size:11.5838px;line-height:0.0605412px;font-family:Oswald;-inkscape-font-specification:'Oswald Bold';text-align:center;letter-spacing:-1.13586px;word-spacing:0px;writing-mode:lr-tb;direction:ltr;text-anchor:middle;fill:#c09247;fill-opacity:1;stroke-width:0.321774;stroke-miterlimit:4.5"
         x="-61.721443"
         y="115.71781"
         id="text72"
         transform="rotate(-90)"><tspan
           sodipodi:role="line"
           id="tspan72"
           style="font-style:normal;font-variant:normal;font-weight:bold;font-stretch:normal;font-family:Oswald;-inkscape-font-specification:'Oswald Bold';fill:#c09247;fill-opacity:1;stroke-width:0.321774"
           x="-62.289371"
           y="115.71781">3</tspan></text><text
         xml:space="preserve"
         style="font-style:normal;font-variant:normal;font-weight:bold;font-stretch:normal;font-size:11.5838px;line-height:0.0605412px;font-family:Oswald;-inkscape-font-specification:'Oswald Bold';text-align:center;letter-spacing:-1.13586px;word-spacing:0px;writing-mode:lr-tb;direction:ltr;text-anchor:middle;fill:#c09247;fill-opacity:1;stroke-width:0.321774;stroke-miterlimit:4.5"
         x="-22.256443"
         y="138.30511"
         id="text73"
         transform="rotate(-60)"><tspan
           sodipodi:role="line"
           id="tspan73"
           style="font-style:normal;font-variant:normal;font-weight:bold;font-stretch:normal;font-family:Oswald;-inkscape-font-specification:'Oswald Bold';fill:#c09247;fill-opacity:1;stroke-width:0.321774"
           x="-22.824373"
           y="138.30511">4</tspan></text><text
         xml:space="preserve"
         style="font-style:normal;font-variant:normal;font-weight:bold;font-stretch:normal;font-size:11.5838px;line-height:0.0605412px;font-family:Oswald;-inkscape-font-specification:'Oswald Bold';text-align:center;letter-spacing:-1.13586px;word-spacing:0px;writing-mode:lr-tb;direction:ltr;text-anchor:middle;fill:#c09247;fill-opacity:1;stroke-width:0.321774;stroke-miterlimit:4.5"
         x="22.731558"
         y="138.13544"
         id="text74"
         transform="rotate(-30)"><tspan
           sodipodi:role="line"
           id="tspan74"
           style="font-style:normal;font-variant:normal;font-weight:bold;font-stretch:normal;font-family:Oswald;-inkscape-font-specification:'Oswald Bold';fill:#c09247;fill-opacity:1;stroke-width:0.321774"
           x="22.163628"
           y="138.13544">5</tspan></text><text
         xml:space="preserve"
         style="font-style:normal;font-variant:normal;font-weight:bold;font-stretch:normal;font-size:11.5838px;line-height:0.0605412px;font-family:Oswald;-inkscape-font-specification:'Oswald Bold';text-align:center;letter-spacing:-1.13586px;word-spacing:0px;writing-mode:lr-tb;direction:ltr;text-anchor:middle;fill:#c09247;fill-opacity:1;stroke-width:0.321774;stroke-miterlimit:4.5"
         x="61.577213"
         y="115.73476"
         id="text75"><tspan
           sodipodi:role="line"
           id="tspan75"
           style="font-style:normal;font-variant:normal;font-weight:bold;font-stretch:normal;font-family:Oswald;-inkscape-font-specification:'Oswald Bold';fill:#c09247;fill-opacity:1;stroke-width:0.321774"
           x="61.009285"
           y="115.73476">6</tspan></text><text
         xml:space="preserve"
         style="font-style:normal;font-variant:normal;font-weight:bold;font-stretch:normal;font-size:11.5838px;line-height:0.0605412px;font-family:Oswald;-inkscape-font-specification:'Oswald Bold';text-align:center;letter-spacing:-1.13586px;word-spacing:0px;writing-mode:lr-tb;direction:ltr;text-anchor:middle;fill:#c09247;fill-opacity:1;stroke-width:0.321774;stroke-miterlimit:4.5"
         x="84.469978"
         y="76.657219"
         id="text76"
         transform="rotate(30)"><tspan
           sodipodi:role="line"
           id="tspan76"
           style="font-style:normal;font-variant:normal;font-weight:bold;font-stretch:normal;font-family:Oswald;-inkscape-font-specification:'Oswald Bold';fill:#c09247;fill-opacity:1;stroke-width:0.321774"
           x="83.902046"
           y="76.657219">7</tspan></text><text
         xml:space="preserve"
         style="font-style:normal;font-variant:normal;font-weight:bold;font-stretch:normal;font-size:11.5838px;line-height:0.0605412px;font-family:Oswald;-inkscape-font-specification:'Oswald Bold';text-align:center;letter-spacing:-1.13586px;word-spacing:0px;writing-mode:lr-tb;direction:ltr;text-anchor:middle;fill:#c09247;fill-opacity:1;stroke-width:0.321774;stroke-miterlimit:4.5"
         x="84.588753"
         y="31.505171"
         id="text77"
         transform="rotate(60)"><tspan
           sodipodi:role="line"
           id="tspan77"
           style="font-style:normal;font-variant:normal;font-weight:bold;font-stretch:normal;font-family:Oswald;-inkscape-font-specification:'Oswald Bold';fill:#c09247;fill-opacity:1;stroke-width:0.321774"
           x="84.020821"
           y="31.505171">8</tspan></text><text
         xml:space="preserve"
         style="font-style:normal;font-variant:normal;font-weight:bold;font-stretch:normal;font-size:11.5838px;line-height:0.0605412px;font-family:Oswald;-inkscape-font-specification:'Oswald Bold';text-align:center;letter-spacing:-1.13586px;word-spacing:0px;writing-mode:lr-tb;direction:ltr;text-anchor:middle;fill:#c09247;fill-opacity:1;stroke-width:0.321774;stroke-miterlimit:4.5"
         x="-61.630947"
         y="16.933315"
         id="text78"
         transform="rotate(-90)"><tspan
           sodipodi:role="line"
           id="tspan78"
           style="font-style:normal;font-variant:normal;font-weight:bold;font-stretch:normal;font-family:Oswald;-inkscape-font-specification:'Oswald Bold';fill:#c09247;fill-opacity:1;stroke-width:0.321774"
           x="-62.198875"
           y="16.933315">9</tspan></text><text
         xml:space="preserve"
         style="font-style:normal;font-variant:normal;font-weight:bold;font-stretch:normal;font-size:11.5838px;line-height:0.0605412px;font-family:Oswald;-inkscape-font-specification:'Oswald Bold';text-align:center;letter-spacing:-1.13586px;word-spacing:0px;writing-mode:lr-tb;direction:ltr;text-anchor:middle;fill:#c09247;fill-opacity:1;stroke-width:0.321774;stroke-miterlimit:4.5"
         x="-22.940842"
         y="39.49802"
         id="text79"
         transform="rotate(-60.000002)"><tspan
           sodipodi:role="line"
           id="tspan79"
           style="font-style:normal;font-variant:normal;font-weight:bold;font-stretch:normal;font-family:Oswald;-inkscape-font-specification:'Oswald Bold';fill:#c09247;fill-opacity:1;stroke-width:0.321774"
           x="-23.508772"
           y="39.49802">10</tspan></text><text
         xml:space="preserve"
         style="font-style:normal;font-variant:normal;font-weight:bold;font-stretch:normal;font-size:11.5838px;line-height:0.0605412px;font-family:Oswald;-inkscape-font-specification:'Oswald Bold';text-align:center;letter-spacing:-1.13586px;word-spacing:0px;writing-mode:lr-tb;direction:ltr;text-anchor:middle;fill:#c09247;fill-opacity:1;stroke-width:0.321774;stroke-miterlimit:4.5"
         x="83.836479"
         y="-22.149889"
         id="text82"
         transform="rotate(29.999994)"><tspan
           sodipodi:role="line"
           id="tspan82"
           style="font-style:normal;font-variant:normal;font-weight:bold;font-stretch:normal;font-family:Oswald;-inkscape-font-specification:'Oswald Bold';fill:#c09247;fill-opacity:1;stroke-width:0.321774"
           x="83.268547"
           y="-22.149889">1</tspan></text><text
         xml:space="preserve"
         style="font-style:normal;font-variant:normal;font-weight:bold;font-stretch:normal;font-size:11.5838px;line-height:0.0605412px;font-family:Oswald;-inkscape-font-specification:'Oswald Bold';text-align:center;letter-spacing:-1.13586px;word-spacing:0px;writing-mode:lr-tb;direction:ltr;text-anchor:middle;fill:#c09247;fill-opacity:1;stroke-width:0.321774;stroke-miterlimit:4.5"
         x="83.836479"
         y="-67.279335"
         id="text83"
         transform="rotate(60.000015)"><tspan
           sodipodi:role="line"
           id="tspan83"
           style="font-style:normal;font-variant:normal;font-weight:bold;font-stretch:normal;font-family:Oswald;-inkscape-font-specification:'Oswald Bold';fill:#c09247;fill-opacity:1;stroke-width:0.321774"
           x="83.268547"
           y="-67.279335">2</tspan></text><g
         id="g83"
         transform="matrix(0.09333898,0,0,0.09333898,51.283041,72.495816)"><polygon
           fill-rule="evenodd"
           clip-rule="evenodd"
           fill="#ededee"
           points="208.796,240.916 208.794,277.324 219.54,274.589 219.526,304.029 112.123,340.158 2.547,303.984 2.545,274.576 13.57,277.33 13.566,239.818 2.552,236.445 2.509,207.015 13.559,208.974 13.798,80.697 0,56.344 18.778,56.407 2.134,0 220.784,0 204.335,56.426 222.091,56.374 208.792,80.72 208.812,208.392 219.548,205.138 219.542,238.203 "
           id="polygon1" /><path
           fill="#0e447b"
           d="m 52.513,13.561 -4.832,16.005 5.291,19.451 H 44.253 L 40.844,33.82 V 49.018 H 32.398 V 13.561 h 8.446 v 13.777 l 3.744,-13.777 z m 23.27,0 -4.832,16.005 5.291,19.451 h -8.72 L 64.114,33.82 V 49.018 H 55.668 V 13.561 h 8.446 v 13.777 l 3.744,-13.777 z m 20.416,10.727 h -7.837 v -2.624 c 0,-1.226 -0.103,-2.011 -0.301,-2.347 -0.198,-0.336 -0.534,-0.501 -1.006,-0.501 -0.507,0 -0.89,0.225 -1.15,0.681 -0.26,0.449 -0.39,1.136 -0.39,2.056 0,1.181 0.144,2.078 0.438,2.676 0.28,0.598 1.081,1.316 2.389,2.168 3.758,2.437 6.119,4.433 7.098,5.996 0.979,1.563 1.465,4.082 1.465,7.558 0,2.527 -0.274,4.388 -0.814,5.584 -0.541,1.196 -1.588,2.205 -3.135,3.013 -1.554,0.807 -3.354,1.218 -5.414,1.218 -2.259,0 -4.189,-0.471 -5.784,-1.405 -1.601,-0.935 -2.648,-2.123 -3.141,-3.566 -0.493,-1.45 -0.739,-3.499 -0.739,-6.16 v -2.318 h 7.836 v 4.313 c 0,1.331 0.11,2.183 0.329,2.564 0.226,0.374 0.615,0.568 1.177,0.568 0.561,0 0.979,-0.239 1.252,-0.725 0.274,-0.479 0.411,-1.196 0.411,-2.146 0,-2.085 -0.26,-3.454 -0.78,-4.097 -0.534,-0.643 -1.854,-1.712 -3.949,-3.214 -2.101,-1.525 -3.49,-2.624 -4.175,-3.312 -0.678,-0.688 -1.246,-1.638 -1.69,-2.849 -0.452,-1.211 -0.671,-2.758 -0.671,-4.642 0,-2.714 0.315,-4.702 0.952,-5.958 0.629,-1.256 1.656,-2.235 3.073,-2.946 1.417,-0.703 3.128,-1.061 5.133,-1.061 2.197,0 4.065,0.389 5.605,1.158 1.547,0.778 2.566,1.75 3.073,2.931 0.5,1.174 0.746,3.17 0.746,5.988 v 1.399 z m 26.282,-10.727 v 28.362 h 5.133 v 7.094 h -13.58 V 13.561 Z m 8.403,0 h 14.08 v 7.094 h -5.633 v 6.721 h 5.27 v 6.75 h -5.27 v 7.797 h 6.193 v 7.094 H 130.883 V 13.561 Z m 38.006,15.46 h -8.439 v -6.175 c 0,-1.794 -0.096,-2.916 -0.273,-3.364 -0.178,-0.441 -0.574,-0.666 -1.191,-0.666 -0.697,0 -1.135,0.27 -1.326,0.808 -0.186,0.546 -0.281,1.712 -0.281,3.506 v 16.469 c 0,1.727 0.096,2.848 0.281,3.372 0.191,0.53 0.607,0.792 1.266,0.792 0.629,0 1.041,-0.262 1.232,-0.792 0.191,-0.523 0.293,-1.757 0.293,-3.701 v -4.44 h 8.439 v 1.375 c 0,3.663 -0.238,6.265 -0.711,7.797 -0.473,1.533 -1.527,2.878 -3.148,4.029 -1.623,1.151 -3.629,1.734 -6.002,1.734 -2.479,0 -4.518,-0.494 -6.119,-1.473 -1.601,-0.979 -2.67,-2.333 -3.189,-4.059 -0.521,-1.734 -0.781,-4.336 -0.781,-7.813 V 26.067 c 0,-2.557 0.082,-4.47 0.24,-5.749 0.164,-1.278 0.637,-2.512 1.438,-3.692 0.793,-1.181 1.895,-2.116 3.305,-2.796 1.41,-0.673 3.033,-1.017 4.859,-1.017 2.492,0 4.545,0.531 6.16,1.577 1.615,1.054 2.676,2.362 3.189,3.932 0.508,1.57 0.76,4.014 0.76,7.326 v 3.373 z m 23.666,-15.46 v 35.457 h -8.438 V 34.126 h -2.525 v 14.892 h -8.447 V 13.561 h 8.447 v 12.678 h 2.525 V 13.561 Z"
           id="path1-6" /><path
           fill="#0e447b"
           d="m 44.907,250.779 10.906,3.883 c 2.374,0.844 4.153,2.32 5.335,4.436 1.182,2.105 1.774,4.727 1.774,7.84 0,3.209 -0.643,5.486 -1.933,6.832 -1.291,1.344 -3.258,1.545 -5.903,0.604 l -3.59,-1.277 v 11.787 l -6.59,-2.348 v -31.757 z m 6.591,15.885 1.607,0.572 c 1.266,0.449 2.15,0.439 2.665,-0.035 0.51,-0.477 0.767,-1.229 0.767,-2.248 0,-1 -0.223,-1.928 -0.667,-2.773 -0.44,-0.854 -1.276,-1.498 -2.501,-1.934 L 51.5,259.58 v 7.084 z"
           id="path2" /><path
           fill="#0e447b"
           d="m 65.529,274.017 c 0,-5.184 0.969,-8.877 2.897,-11.072 1.933,-2.203 4.623,-2.688 8.068,-1.461 3.535,1.258 6.259,3.646 8.172,7.168 1.908,3.51 2.868,7.83 2.868,12.939 0,3.711 -0.42,6.607 -1.256,8.684 -0.836,2.076 -2.042,3.496 -3.619,4.258 -1.582,0.76 -3.545,0.719 -5.903,-0.121 -2.393,-0.852 -4.375,-2.127 -5.947,-3.824 -1.567,-1.703 -2.838,-3.961 -3.816,-6.779 -0.975,-2.815 -1.464,-6.081 -1.464,-9.792 z m 6.565,2.381 c 0,3.209 0.396,5.648 1.191,7.338 0.796,1.68 1.884,2.77 3.253,3.258 1.409,0.5 2.501,0.203 3.273,-0.891 0.771,-1.102 1.162,-3.424 1.162,-6.973 0,-2.996 -0.406,-5.32 -1.212,-6.99 -0.805,-1.662 -1.898,-2.738 -3.282,-3.23 -1.32,-0.471 -2.383,-0.154 -3.184,0.965 -0.8,1.113 -1.201,3.292 -1.201,6.523 z"
           id="path3" /><polygon
           fill="#0e447b"
           points="109.534,298.716 109.534,305.541 89.388,298.369 89.388,291.781 101.159,277.583 90.53,273.8 90.53,267.019 109.099,273.628 109.099,279.974 97.194,294.324 "
           id="polygon3" /><polygon
           fill="#0e447b"
           points="133.507,267.617 133.507,299.861 127.419,301.976 119.589,286.994 119.589,304.697 113.514,306.806 113.514,274.56 119.55,272.464 127.419,287.57 127.419,269.732 "
           id="polygon4" /><path
           fill="#0e447b"
           d="m 150.37,288.681 -7.359,2.557 -1.012,5.674 -6.6,2.293 7.855,-34.975 7.041,-2.445 7.861,29.516 -6.76,2.348 z m -1.353,-6.504 -2.311,-10.789 -2.299,12.389 z"
           id="path4" /><polygon
           fill="#0e447b"
           points="170.526,252.644 166.774,253.609 170.009,246.201 176.747,244.468 "
           id="polygon5" /><polygon
           fill="#0e447b"
           points="180.257,251.378 180.257,283.623 174.167,285.738 166.337,270.755 166.337,288.458 160.263,290.568 160.263,258.322 166.298,256.226 174.167,271.332 174.167,253.492 "
           id="polygon6" /><path
           fill="#0e447b"
           d="M 88.265,87.604 H 82.402 V 68.923 H 80.153 V 65.21 c 0.858,0 1.576,-0.352 2.166,-1.05 0.591,-0.698 0.883,-1.383 0.883,-2.044 h 5.063 z m 4.114,-10.648 h 5.711 v 6.486 c 0,0.558 0.331,0.837 0.991,0.837 0.642,0 0.965,-0.279 0.965,-0.837 V 75.87 c -0.419,0.431 -1.207,0.643 -2.363,0.643 -1.563,0 -2.839,-0.358 -3.824,-1.074 -0.985,-0.722 -1.48,-1.717 -1.48,-2.997 v -5.939 c 0,-1.481 0.616,-2.621 1.842,-3.422 1.226,-0.794 2.833,-1.195 4.821,-1.195 2.008,0 3.634,0.394 4.866,1.189 1.232,0.795 1.849,1.923 1.849,3.397 v 16.423 c 0,3.294 -2.249,4.938 -6.753,4.938 -4.415,0 -6.625,-1.632 -6.625,-4.908 z m 7.668,-4.653 v -6.116 c 0,-0.558 -0.324,-0.837 -0.965,-0.837 -0.661,0 -0.991,0.279 -0.991,0.837 v 6.116 c 0,0.552 0.331,0.831 0.991,0.831 0.641,0 0.965,-0.279 0.965,-0.831 z m 23.018,15.301 h -13.384 v -3.379 l 6.587,-11.552 c 0.724,-1.256 1.08,-2.973 1.08,-5.157 0,-1.134 -0.393,-1.705 -1.188,-1.705 -0.819,0 -1.232,0.358 -1.232,1.068 v 4.374 h -5.247 v -4.447 c 0,-3.282 2.21,-4.92 6.625,-4.92 2.731,0 4.536,0.601 5.424,1.802 0.891,1.201 1.334,3.179 1.334,5.927 0,1.08 -0.195,1.966 -0.578,2.67 L 115.9,84.334 h 7.165 z m 17.252,0 h -13.385 v -3.379 l 6.588,-11.552 c 0.725,-1.256 1.08,-2.973 1.08,-5.157 0,-1.134 -0.395,-1.705 -1.188,-1.705 -0.82,0 -1.232,0.358 -1.232,1.068 v 4.374 h -5.248 v -4.447 c 0,-3.282 2.211,-4.92 6.627,-4.92 2.73,0 4.535,0.601 5.424,1.802 0.889,1.201 1.334,3.179 1.334,5.927 0,1.08 -0.197,1.966 -0.578,2.67 l -6.588,12.049 h 7.166 z"
           id="path6" /><path
           fill-rule="evenodd"
           clip-rule="evenodd"
           fill="#0e447b"
           d="m 7.044,3.767 h 208.855 l -16.453,56.439 16.457,-0.048 -10.773,19.724 0.02,133.551 10.736,-3.254 -0.006,25.266 -10.746,2.713 -0.002,43.984 10.742,-2.734 -0.01,22.084 -103.748,34.9 L 6.219,301.431 6.218,279.37 17.243,282.124 17.239,237.204 6.22,233.83 6.188,211.49 17.224,213.447 17.473,79.833 6.31,60.132 23.693,60.19 Z M 57.333,54.13 H 165.63 v 6.089 h 27.713 L 208.093,9.621 H 14.877 l 14.93,50.598 H 57.334 V 54.13 Z M 165.63,66.043 v 11.702 h 27.289 v 144.932 l -77.271,25.617 V 95.436 h -9.204 v 152.65 L 29.172,222.469 V 77.536 H 57.333 V 66.043 H 31.525 l 0.008,0.028 -15.157,-0.05 6.955,12.273 -0.265,142.133 -11.012,-1.951 0.016,11.021 11.024,3.375 0.005,56.75 -11.025,-2.754 v 10.33 l 100.025,33.021 97.912,-32.938 0.006,-10.342 -10.742,2.732 0.004,-56.078 10.746,-2.711 0.004,-12.811 -10.732,3.252 -0.021,-142.938 6.744,-12.346 -14.385,0.042 0.012,-0.041 H 165.63 Z M 160.622,60.18 H 62.573 l 0.084,29.896 43.787,0.229 h 9.204 l 44.849,0.173 z m -130.255,174.528 81.822,26.498 81.902,-26.514 v 57.479 l -81.974,28.346 -81.75,-28.41 z m 5.856,8.051 75.965,24.604 76.047,-24.619 v 45.258 L 112.121,314.32 36.223,287.943 Z M 165.63,83.601 v 11.834 h -44.127 v 144.75 l 65.561,-21.734 V 83.601 Z"
           id="path7" /><path
           fill-rule="evenodd"
           clip-rule="evenodd"
           fill="#0e447b"
           d="m 182.272,86.769 -58.184,81.276 0.121,25.467 c 13.336,0.072 12.098,22.146 0.016,22.139 l 0.068,9.043 c 6.561,1.596 12.213,1.617 16.252,-1.172 0.141,-0.098 0.35,-0.025 0.523,-0.037 7.393,-0.533 11.201,-7.35 6.594,-15.43 7.041,-6.625 8.051,-12.658 1.779,-17.98 l 32.875,-23.992 v -18.531 l -34.133,31.49 0.014,-4.246 34.119,-33.717 v -21.442 l -36.682,42.742 0.041,-5.572 36.641,-45.262 z"
           id="path8" /><path
           fill-rule="evenodd"
           clip-rule="evenodd"
           fill="#ededee"
           d="m 38.38,86.668 58.183,81.276 -0.12,25.467 c -13.337,0.072 -12.098,22.146 -0.017,22.137 l -0.067,9.043 c -6.56,1.598 -12.213,1.617 -16.252,-1.172 -0.139,-0.096 -0.35,-0.025 -0.524,-0.037 -7.392,-0.533 -11.201,-7.348 -6.592,-15.43 -7.042,-6.623 -8.051,-12.658 -1.78,-17.979 L 38.336,165.981 V 147.45 l 34.133,31.489 -0.012,-4.244 -34.121,-33.718 v -21.442 l 36.682,42.743 -0.041,-5.573 -36.642,-45.262 z"
           id="path9" /></g><circle
         style="fill:url(#linearGradient85);fill-opacity:1;stroke-width:0.618338;stroke-miterlimit:4.5"
         id="path84"
         cx="61.647915"
         cy="33.86668"
         r="18.520832" /><circle
         style="fill:#0e447b;fill-opacity:1;stroke-width:0.530004;stroke-miterlimit:4.5"
         id="circle85"
         cx="61.647915"
         cy="33.86668"
         r="15.875" /><path
         id="rect86"
         style="fill:#ffffff;fill-opacity:1;stroke-width:0.150585;stroke-miterlimit:4.5"
         d="m 19.843749,-61.25104 h 3.175 v -0.79375 h -3.175 z m 1.680518,6.270935 0.396875,0.687296 2.749186,-1.5875 -0.396875,-0.687296 z m 0,-13.33562 2.749186,1.5875 0.396875,-0.687296 -2.749186,-1.5875 z m 4.987292,18.613334 0.687297,0.396875 1.5875,-2.749186 -0.687297,-0.396875 z m 0,-23.891048 1.5875,2.749186 0.687297,-0.396875 -1.5875,-2.749186 z m 6.958232,25.96844 h 0.79375 v -3.175 h -0.79375 z m 0,-24.870832 h 0.79375 v -3.175 h -0.79375 z m 5.477185,20.441129 1.5875,2.749186 0.687296,-0.396875 -1.5875,-2.749186 z m 4.116027,-3.825607 2.749187,1.5875 0.396875,-0.687296 -2.749187,-1.5875 z m 1.651579,-5.370731 h 3.175 v -0.79375 h -3.175 z"
         transform="rotate(90)" /></g><path
       id="path97"
       style="fill:#c09247;fill-opacity:1;stroke-width:0.437829;stroke-miterlimit:4.5"
       d="m -166.27862,19.843749 v 12.526367 a 1.5875,1.5875 0 0 0 -1.05833,1.49655 1.5875,1.5875 0 0 0 1.5875,1.5875 1.5875,1.5875 0 0 0 1.5875,-1.5875 1.5875,1.5875 0 0 0 -1.05833,-1.49655 V 19.843749 Z" /><path
       id="path98"
       style="fill:#ffffff;fill-opacity:1;stroke-width:0.199803;stroke-miterlimit:4.5"
       d="m -230.89056,22.89886 -0.64699,35.353397 a 3.96875,3.96875 0 0 0 -1.91409,3.395658 3.96875,3.96875 0 0 0 3.96875,3.96875 3.96875,3.96875 0 0 0 3.96875,-3.96875 3.96875,3.96875 0 0 0 -1.9141,-3.395658 l -0.64699,-35.353397 z" /><path
       id="circle98"
       style="fill:#ffffff;fill-opacity:1;stroke-width:0.199803;stroke-miterlimit:4.5"
       d="m -212.88445,6.5484373 -0.46767,51.4475047 a 3.96875,3.96875 0 0 0 -2.41433,3.651973 3.96875,3.96875 0 0 0 3.96875,3.96875 3.96875,3.96875 0 0 0 3.96875,-3.96875 3.96875,3.96875 0 0 0 -2.41432,-3.651973 l -0.46767,-51.4475047 z" /><path
       id="path99"
       style="fill:#c09247;fill-opacity:1;stroke-width:0.154584;stroke-miterlimit:4.5"
       d="m -190.70657,2.4773681 c -0.36531,0 -0.66146,0.2961451 -0.66146,0.6614583 V 60.043879 a 1.8520833,1.8520833 0 0 0 -0.92604,1.604036 1.8520833,1.8520833 0 0 0 0.92604,1.604036 v 4.247286 a 0.926042,0.926042 0 0 0 0.92605,0.926042 0.926042,0.926042 0 0 0 0.92604,-0.926042 v -4.247286 a 1.8520833,1.8520833 0 0 0 0.92604,-1.604036 1.8520833,1.8520833 0 0 0 -0.92604,-1.604036 V 3.1388264 c 0,-0.3653132 -0.29615,-0.6614583 -0.66146,-0.6614583 z" /></g><metadata
     id="metadata1"><rdf:RDF><cc:Work
         rdf:about="" /></rdf:RDF></metadata></svg>
